<svg width="20" height="18" viewBox="0 0 20 18" fill="none" xmlns="http://www.w3.org/2000/svg">
<path d="M8.82031 17.2891L8.72266 17.1992L1.87891 10.8438C0.679688 9.73048 0 8.16798 0 6.53126V6.40235C0 3.65235 1.95312 1.29298 4.65625 0.777352C6.19531 0.480477 7.76953 0.835946 9.02344 1.71876C9.375 1.96876 9.70312 2.25782 10 2.58985C10.1641 2.40235 10.3398 2.23048 10.5273 2.07032C10.6719 1.94532 10.8203 1.82813 10.9766 1.71876C12.2305 0.835946 13.8047 0.480477 15.3438 0.773446C18.0469 1.28907 20 3.65235 20 6.40235V6.53126C20 8.16798 19.3203 9.73048 18.1211 10.8438L11.2773 17.1992L11.1797 17.2891C10.8594 17.5859 10.4375 17.7539 10 17.7539C9.5625 17.7539 9.14062 17.5899 8.82031 17.2891Z" fill="#FF0000"/>
</svg>
