<svg width="20" height="18" viewBox="0 0 20 18" fill="none" xmlns="http://www.w3.org/2000/svg">
<path d="M8.82031 17.2891L8.72266 17.1992L1.87891 10.8438C0.679687 9.73048 0 8.16798 0 6.53126V6.40235C0 3.65235 1.95312 1.29298 4.65625 0.777352C6.19531 0.480477 7.76953 0.835946 9.02344 1.71876C9.375 1.96876 9.70313 2.25782 10 2.58985C10.1641 2.40235 10.3398 2.23048 10.5273 2.07032C10.6719 1.94532 10.8203 1.82813 10.9766 1.71876C12.2305 0.835946 13.8047 0.480477 15.3437 0.773446C18.0469 1.28907 20 3.65235 20 6.40235V6.53126C20 8.16798 19.3203 9.73048 18.1211 10.8438L11.2773 17.1992L11.1797 17.2891C10.8594 17.5859 10.4375 17.7539 10 17.7539C9.5625 17.7539 9.14063 17.5899 8.82031 17.2891ZM9.33984 4.66407C9.32422 4.65235 9.3125 4.63673 9.30078 4.6211L8.60547 3.83985L8.60156 3.83595C7.69922 2.82423 6.33594 2.36329 5.00781 2.6172C3.1875 2.96485 1.875 4.55079 1.875 6.40235V6.53126C1.875 7.64454 2.33984 8.71095 3.15625 9.46876L10 15.8242L16.8438 9.46876C17.6602 8.71095 18.125 7.64454 18.125 6.53126V6.40235C18.125 4.5547 16.8125 2.96485 14.9961 2.6172C13.668 2.36329 12.3008 2.82813 11.4023 3.83595C11.4023 3.83595 11.4023 3.83595 11.3984 3.83985C11.3945 3.84376 11.3984 3.83985 11.3945 3.84376L10.6992 4.62501C10.6875 4.64063 10.6719 4.65235 10.6602 4.66798C10.4844 4.84376 10.2461 4.94141 10 4.94141C9.75391 4.94141 9.51563 4.84376 9.33984 4.66798V4.66407Z" fill="black"/>
</svg>
