<svg width="21" height="21" viewBox="0 0 21 21" fill="none" xmlns="http://www.w3.org/2000/svg">
<path d="M20.4299 0.229692C20.8442 0.516801 21.0616 1.01309 20.9837 1.50938L18.3587 18.5719C18.2971 18.9697 18.0551 19.3184 17.7024 19.5152C17.3497 19.7121 16.9272 19.7367 16.554 19.5809L11.6485 17.5424L8.83893 20.5816C8.47389 20.9795 7.89967 21.1107 7.39518 20.9139C6.89069 20.717 6.56256 20.2289 6.56256 19.6875V16.2586C6.56256 16.0945 6.62408 15.9387 6.73483 15.8197L13.609 8.31797C13.8469 8.05958 13.8387 7.66172 13.5926 7.41563C13.3465 7.16954 12.9487 7.15313 12.6903 7.38692L4.34772 14.7984L0.726038 12.9856C0.291272 12.7682 0.0123657 12.3334 6.09892e-05 11.8494C-0.0122437 11.3654 0.242053 10.9143 0.660413 10.6723L19.0354 0.17227C19.4743 -0.0779255 20.0157 -0.0533161 20.4299 0.229692Z" fill="white"/>
</svg>
