<svg width="16" height="15" viewBox="0 0 16 15" fill="none" xmlns="http://www.w3.org/2000/svg">
<path d="M7.98955 0.817734L7.98955 0.817736L7.99066 0.820031L9.74887 4.43761L9.92204 4.79392L10.314 4.85174L14.2415 5.43116C14.2416 5.43118 14.2418 5.4312 14.2419 5.43123C14.2882 5.43835 14.3276 5.47065 14.3433 5.51813C14.3572 5.56017 14.3461 5.61005 14.3122 5.64353L14.3119 5.64382L11.4627 8.46296L11.1856 8.73713L11.2508 9.12145L11.9258 13.1034C11.9258 13.1035 11.9259 13.1037 11.9259 13.1039C11.9331 13.1485 11.9152 13.1978 11.8717 13.2294C11.8379 13.254 11.7876 13.2609 11.7397 13.236C11.7394 13.2359 11.739 13.2357 11.7387 13.2355L8.23369 11.3642L7.88045 11.1756L7.52721 11.3642L4.02218 13.2355C4.02187 13.2357 4.02156 13.2359 4.02126 13.236C3.97736 13.2587 3.92442 13.2547 3.88512 13.2265C3.84815 13.2 3.82726 13.1514 3.83502 13.1038C3.83504 13.1037 3.83506 13.1035 3.83509 13.1034L4.50748 9.12096L4.57233 8.7369L4.29546 8.46296L1.44624 5.64382L1.44595 5.64353C1.41557 5.61351 1.40055 5.56262 1.41667 5.51252C1.42918 5.47365 1.46589 5.43896 1.51624 5.43123C1.5164 5.4312 1.51655 5.43118 1.51671 5.43116L5.44155 4.85172L5.83341 4.79387L6.00656 4.43761L7.76347 0.822692C7.76359 0.822449 7.76371 0.822206 7.76383 0.821964C7.78683 0.77577 7.83063 0.75 7.87772 0.75C7.92872 0.75 7.97084 0.778887 7.98955 0.817734Z" stroke="black" stroke-width="1.5"/>
</svg>
